<?xml version="1.0" encoding="UTF-8" standalone="no"?>
<!DOCTYPE svg PUBLIC "-//W3C//DTD SVG 1.1//EN"
 "http://www.w3.org/Graphics/SVG/1.1/DTD/svg11.dtd">
<!-- Generated by graphviz version 7.0.6 (20230106.0513)
 -->
<!-- Pages: 1 -->
<svg width="399pt" height="1372pt"
 viewBox="0.00 0.00 399.00 1372.00" xmlns="http://www.w3.org/2000/svg" xmlns:xlink="http://www.w3.org/1999/xlink">
<g id="graph0" class="graph" transform="scale(1 1) rotate(0) translate(4 1368)">
<g id="a_graph0"><a xlink:title=" ">
<polygon fill="white" stroke="none" points="-4,4 -4,-1368 395,-1368 395,4 -4,4"/>
</a>
</g>
<g id="clust6" class="cluster">
<title>cluster_keras.Sequential.LSTMTimeSeriesRegressor#1keras.Sequential.LSTMTimeSeriesRegressor#1 y (output)</title>
<g id="a_clust6"><a xlink:title=" ">
<polygon fill="none" stroke="black" stroke-width="0" points="91,-512 91,-636 321,-636 321,-512 91,-512"/>
</a>
</g>
</g>
<g id="clust7" class="cluster">
<title>cluster_orion.primitives.timeseries_anomalies.find_anomalies#1 index (input)orion.primitives.timeseries_anomalies.find_anomalies#1</title>
<g id="a_clust7"><a xlink:title=" ">
<polygon fill="none" stroke="black" stroke-width="0" points="8,-224 8,-348 148,-348 148,-224 8,-224"/>
</a>
</g>
</g>
<g id="clust1" class="cluster">
<title>cluster_outputs</title>
<g id="a_clust1"><a xlink:title="Output variables">
<polygon fill="#c1cdcd" stroke="black" stroke-width="0" points="36,-8 36,-132 120,-132 120,-8 36,-8"/>
</a>
</g>
</g>
<g id="clust3" class="cluster">
<title>cluster_inputs</title>
<g id="a_clust3"><a xlink:title="Input variables">
<polygon fill="#c1cdcd" stroke="black" stroke-width="0" points="151,-1232 151,-1356 293,-1356 293,-1232 151,-1232"/>
</a>
</g>
</g>
<!-- Output -->
<g id="node1" class="node">
<title>Output</title>
<g id="a_node1"><a xlink:title="Output variables">
<polygon fill="none" stroke="black" stroke-width="0" points="112,-52 44,-52 44,-16 112,-16 112,-52"/>
<text text-anchor="middle" x="78" y="-30.3" font-family="Times,serif" font-size="14.00">Output</text>
</a>
</g>
</g>
<!-- y_output -->
<g id="node2" class="node">
<title>y_output</title>
<polygon fill="none" stroke="black" stroke-width="0" points="105,-124 51,-124 51,-88 105,-88 105,-124"/>
<text text-anchor="middle" x="78" y="-101" font-family="Times,serif" font-size="20.00">y</text>
</g>
<!-- y_output&#45;&gt;Output -->
<g id="edge1" class="edge">
<title>y_output&#45;&gt;Output</title>
<path fill="none" stroke="black" stroke-width="0" d="M78,-88.2C78,-77.13 78,-62.93 78,-51.84"/>
</g>
<!-- orion.primitives.timeseries_anomalies.find_anomalies#1 -->
<g id="node3" class="node">
<title>orion.primitives.timeseries_anomalies.find_anomalies#1</title>
<polygon fill="none" stroke="black" points="140,-268 16,-268 16,-232 140,-232 140,-268"/>
<text text-anchor="middle" x="78" y="-246.3" font-family="Times,serif" font-size="14.00">find_anomalies</text>
</g>
<!-- orion.primitives.timeseries_anomalies.find_anomalies#1 y -->
<g id="node4" class="node">
<title>orion.primitives.timeseries_anomalies.find_anomalies#1 y</title>
<polygon fill="none" stroke="black" stroke-width="0" points="105,-196 51,-196 51,-160 105,-160 105,-196"/>
<text text-anchor="middle" x="78" y="-174.3" font-family="Times,serif" font-size="14.00">y</text>
</g>
<!-- orion.primitives.timeseries_anomalies.find_anomalies#1&#45;&gt;orion.primitives.timeseries_anomalies.find_anomalies#1 y -->
<g id="edge2" class="edge">
<title>orion.primitives.timeseries_anomalies.find_anomalies#1&#45;&gt;orion.primitives.timeseries_anomalies.find_anomalies#1 y</title>
<path fill="none" stroke="black" d="M78,-231.83C78,-220.83 78,-206.86 78,-195.91"/>
</g>
<!-- orion.primitives.timeseries_anomalies.find_anomalies#1 y&#45;&gt;y_output -->
<g id="edge3" class="edge">
<title>orion.primitives.timeseries_anomalies.find_anomalies#1 y&#45;&gt;y_output</title>
<path fill="none" stroke="black" d="M78,-160.2C78,-160.2 78,-135.36 78,-135.36"/>
<polygon fill="black" stroke="black" points="81.5,-135.36 78,-125.36 74.5,-135.36 81.5,-135.36"/>
</g>
<!-- orion.primitives.timeseries_anomalies.find_anomalies#1 index (input) -->
<g id="node5" class="node">
<title>orion.primitives.timeseries_anomalies.find_anomalies#1 index (input)</title>
<polygon fill="none" stroke="black" stroke-width="0" points="107,-340 41,-340 41,-304 107,-304 107,-340"/>
<text text-anchor="middle" x="74" y="-318.3" font-family="Times,serif" font-size="14.00" fill="blue">(index)</text>
</g>
<!-- orion.primitives.timeseries_anomalies.find_anomalies#1 index (input)&#45;&gt;orion.primitives.timeseries_anomalies.find_anomalies#1 -->
<g id="edge29" class="edge">
<title>orion.primitives.timeseries_anomalies.find_anomalies#1 index (input)&#45;&gt;orion.primitives.timeseries_anomalies.find_anomalies#1</title>
<path fill="none" stroke="black" d="M74,-304.2C74,-304.2 74,-279.86 74,-279.86"/>
<polygon fill="black" stroke="black" points="77.5,-279.86 74,-269.86 70.5,-279.86 77.5,-279.86"/>
</g>
<!-- orion.primitives.timeseries_errors.regression_errors#1 -->
<g id="node6" class="node">
<title>orion.primitives.timeseries_errors.regression_errors#1</title>
<polygon fill="none" stroke="black" points="278,-412 134,-412 134,-376 278,-376 278,-412"/>
<text text-anchor="middle" x="206" y="-390.3" font-family="Times,serif" font-size="14.00">regression_errors</text>
</g>
<!-- orion.primitives.timeseries_errors.regression_errors#1 errors -->
<g id="node7" class="node">
<title>orion.primitives.timeseries_errors.regression_errors#1 errors</title>
<polygon fill="none" stroke="black" stroke-width="0" points="230.5,-340 169.5,-340 169.5,-304 230.5,-304 230.5,-340"/>
<text text-anchor="middle" x="200" y="-318.3" font-family="Times,serif" font-size="14.00">errors</text>
</g>
<!-- orion.primitives.timeseries_errors.regression_errors#1&#45;&gt;orion.primitives.timeseries_errors.regression_errors#1 errors -->
<g id="edge4" class="edge">
<title>orion.primitives.timeseries_errors.regression_errors#1&#45;&gt;orion.primitives.timeseries_errors.regression_errors#1 errors</title>
<path fill="none" stroke="black" d="M200,-375.83C200,-364.83 200,-350.86 200,-339.91"/>
</g>
<!-- orion.primitives.timeseries_errors.regression_errors#1 errors&#45;&gt;orion.primitives.timeseries_anomalies.find_anomalies#1 -->
<g id="edge5" class="edge">
<title>orion.primitives.timeseries_errors.regression_errors#1 errors&#45;&gt;orion.primitives.timeseries_anomalies.find_anomalies#1</title>
<path fill="none" stroke="black" d="M169.94,-322C147.43,-322 120.5,-322 120.5,-322 120.5,-322 120.5,-279.68 120.5,-279.68"/>
<polygon fill="black" stroke="black" points="124,-279.68 120.5,-269.68 117,-279.68 124,-279.68"/>
</g>
<!-- keras.Sequential.LSTMTimeSeriesRegressor#1 -->
<g id="node8" class="node">
<title>keras.Sequential.LSTMTimeSeriesRegressor#1</title>
<polygon fill="none" stroke="black" points="313,-628 99,-628 99,-592 313,-592 313,-628"/>
<text text-anchor="middle" x="206" y="-606.3" font-family="Times,serif" font-size="14.00">LSTMTimeSeriesRegressor</text>
</g>
<!-- keras.Sequential.LSTMTimeSeriesRegressor#1 y (output) -->
<g id="node9" class="node">
<title>keras.Sequential.LSTMTimeSeriesRegressor#1 y (output)</title>
<polygon fill="none" stroke="black" stroke-width="0" points="233,-556 179,-556 179,-520 233,-520 233,-556"/>
<text text-anchor="middle" x="206" y="-534.3" font-family="Times,serif" font-size="14.00" fill="red">(y)</text>
</g>
<!-- keras.Sequential.LSTMTimeSeriesRegressor#1&#45;&gt;keras.Sequential.LSTMTimeSeriesRegressor#1 y (output) -->
<g id="edge28" class="edge">
<title>keras.Sequential.LSTMTimeSeriesRegressor#1&#45;&gt;keras.Sequential.LSTMTimeSeriesRegressor#1 y (output)</title>
<path fill="none" stroke="black" d="M206,-591.83C206,-580.83 206,-566.86 206,-555.91"/>
</g>
<!-- keras.Sequential.LSTMTimeSeriesRegressor#1 y_hat -->
<g id="node10" class="node">
<title>keras.Sequential.LSTMTimeSeriesRegressor#1 y_hat</title>
<polygon fill="none" stroke="black" stroke-width="0" points="234,-484 178,-484 178,-448 234,-448 234,-484"/>
<text text-anchor="middle" x="206" y="-462.3" font-family="Times,serif" font-size="14.00">y_hat</text>
</g>
<!-- keras.Sequential.LSTMTimeSeriesRegressor#1 y (output)&#45;&gt;keras.Sequential.LSTMTimeSeriesRegressor#1 y_hat -->
<g id="edge6" class="edge">
<title>keras.Sequential.LSTMTimeSeriesRegressor#1 y (output)&#45;&gt;keras.Sequential.LSTMTimeSeriesRegressor#1 y_hat</title>
<path fill="none" stroke="black" d="M206,-520.2C206,-509.13 206,-494.93 206,-483.84"/>
</g>
<!-- keras.Sequential.LSTMTimeSeriesRegressor#1 y_hat&#45;&gt;orion.primitives.timeseries_errors.regression_errors#1 -->
<g id="edge7" class="edge">
<title>keras.Sequential.LSTMTimeSeriesRegressor#1 y_hat&#45;&gt;orion.primitives.timeseries_errors.regression_errors#1</title>
<path fill="none" stroke="black" d="M206,-448.2C206,-448.2 206,-423.86 206,-423.86"/>
<polygon fill="black" stroke="black" points="209.5,-423.86 206,-413.86 202.5,-423.86 209.5,-423.86"/>
</g>
<!-- mlprimitives.custom.timeseries_preprocessing.rolling_window_sequences#1 -->
<g id="node11" class="node">
<title>mlprimitives.custom.timeseries_preprocessing.rolling_window_sequences#1</title>
<polygon fill="none" stroke="black" points="301,-772 93,-772 93,-736 301,-736 301,-772"/>
<text text-anchor="middle" x="197" y="-750.3" font-family="Times,serif" font-size="14.00">rolling_window_sequences</text>
</g>
<!-- mlprimitives.custom.timeseries_preprocessing.rolling_window_sequences#1 X -->
<g id="node12" class="node">
<title>mlprimitives.custom.timeseries_preprocessing.rolling_window_sequences#1 X</title>
<polygon fill="none" stroke="black" stroke-width="0" points="224,-700 170,-700 170,-664 224,-664 224,-700"/>
<text text-anchor="middle" x="197" y="-678.3" font-family="Times,serif" font-size="14.00">X</text>
</g>
<!-- mlprimitives.custom.timeseries_preprocessing.rolling_window_sequences#1&#45;&gt;mlprimitives.custom.timeseries_preprocessing.rolling_window_sequences#1 X -->
<g id="edge8" class="edge">
<title>mlprimitives.custom.timeseries_preprocessing.rolling_window_sequences#1&#45;&gt;mlprimitives.custom.timeseries_preprocessing.rolling_window_sequences#1 X</title>
<path fill="none" stroke="black" d="M197,-735.83C197,-724.83 197,-710.86 197,-699.91"/>
</g>
<!-- mlprimitives.custom.timeseries_preprocessing.rolling_window_sequences#1 target_index -->
<g id="node13" class="node">
<title>mlprimitives.custom.timeseries_preprocessing.rolling_window_sequences#1 target_index</title>
<polygon fill="none" stroke="black" stroke-width="0" points="142.5,-700 35.5,-700 35.5,-664 142.5,-664 142.5,-700"/>
<text text-anchor="middle" x="89" y="-678.3" font-family="Times,serif" font-size="14.00">target_index</text>
</g>
<!-- mlprimitives.custom.timeseries_preprocessing.rolling_window_sequences#1&#45;&gt;mlprimitives.custom.timeseries_preprocessing.rolling_window_sequences#1 target_index -->
<g id="edge10" class="edge">
<title>mlprimitives.custom.timeseries_preprocessing.rolling_window_sequences#1&#45;&gt;mlprimitives.custom.timeseries_preprocessing.rolling_window_sequences#1 target_index</title>
<path fill="none" stroke="black" d="M117.75,-735.83C117.75,-724.83 117.75,-710.86 117.75,-699.91"/>
</g>
<!-- mlprimitives.custom.timeseries_preprocessing.rolling_window_sequences#1 y -->
<g id="node14" class="node">
<title>mlprimitives.custom.timeseries_preprocessing.rolling_window_sequences#1 y</title>
<polygon fill="none" stroke="black" stroke-width="0" points="296,-700 242,-700 242,-664 296,-664 296,-700"/>
<text text-anchor="middle" x="269" y="-678.3" font-family="Times,serif" font-size="14.00">y</text>
</g>
<!-- mlprimitives.custom.timeseries_preprocessing.rolling_window_sequences#1&#45;&gt;mlprimitives.custom.timeseries_preprocessing.rolling_window_sequences#1 y -->
<g id="edge12" class="edge">
<title>mlprimitives.custom.timeseries_preprocessing.rolling_window_sequences#1&#45;&gt;mlprimitives.custom.timeseries_preprocessing.rolling_window_sequences#1 y</title>
<path fill="none" stroke="black" d="M269,-735.83C269,-724.83 269,-710.86 269,-699.91"/>
</g>
<!-- mlprimitives.custom.timeseries_preprocessing.rolling_window_sequences#1 X&#45;&gt;keras.Sequential.LSTMTimeSeriesRegressor#1 -->
<g id="edge9" class="edge">
<title>mlprimitives.custom.timeseries_preprocessing.rolling_window_sequences#1 X&#45;&gt;keras.Sequential.LSTMTimeSeriesRegressor#1</title>
<path fill="none" stroke="black" d="M197,-664.2C197,-664.2 197,-639.86 197,-639.86"/>
<polygon fill="black" stroke="black" points="200.5,-639.86 197,-629.86 193.5,-639.86 200.5,-639.86"/>
</g>
<!-- mlprimitives.custom.timeseries_preprocessing.rolling_window_sequences#1 target_index&#45;&gt;orion.primitives.timeseries_anomalies.find_anomalies#1 index (input) -->
<g id="edge11" class="edge">
<title>mlprimitives.custom.timeseries_preprocessing.rolling_window_sequences#1 target_index&#45;&gt;orion.primitives.timeseries_anomalies.find_anomalies#1 index (input)</title>
<path fill="none" stroke="black" d="M70,-664.15C70,-602.86 70,-401.41 70,-339.96"/>
</g>
<!-- mlprimitives.custom.timeseries_preprocessing.rolling_window_sequences#1 y&#45;&gt;orion.primitives.timeseries_errors.regression_errors#1 -->
<g id="edge14" class="edge">
<title>mlprimitives.custom.timeseries_preprocessing.rolling_window_sequences#1 y&#45;&gt;orion.primitives.timeseries_errors.regression_errors#1</title>
<path fill="none" stroke="black" d="M295.69,-682C312.19,-682 330.25,-682 330.25,-682 330.25,-682 330.25,-394 330.25,-394 330.25,-394 289.79,-394 289.79,-394"/>
<polygon fill="black" stroke="black" points="289.79,-390.5 279.79,-394 289.79,-397.5 289.79,-390.5"/>
</g>
<!-- mlprimitives.custom.timeseries_preprocessing.rolling_window_sequences#1 y&#45;&gt;keras.Sequential.LSTMTimeSeriesRegressor#1 -->
<g id="edge13" class="edge">
<title>mlprimitives.custom.timeseries_preprocessing.rolling_window_sequences#1 y&#45;&gt;keras.Sequential.LSTMTimeSeriesRegressor#1</title>
<path fill="none" stroke="black" d="M269,-664.2C269,-664.2 269,-639.86 269,-639.86"/>
<polygon fill="black" stroke="black" points="272.5,-639.86 269,-629.86 265.5,-639.86 272.5,-639.86"/>
</g>
<!-- sklearn.preprocessing.MinMaxScaler#1 -->
<g id="node15" class="node">
<title>sklearn.preprocessing.MinMaxScaler#1</title>
<polygon fill="none" stroke="black" points="347.5,-916 226.5,-916 226.5,-880 347.5,-880 347.5,-916"/>
<text text-anchor="middle" x="287" y="-894.3" font-family="Times,serif" font-size="14.00">MinMaxScaler</text>
</g>
<!-- sklearn.preprocessing.MinMaxScaler#1 X -->
<g id="node16" class="node">
<title>sklearn.preprocessing.MinMaxScaler#1 X</title>
<polygon fill="none" stroke="black" stroke-width="0" points="296,-844 242,-844 242,-808 296,-808 296,-844"/>
<text text-anchor="middle" x="269" y="-822.3" font-family="Times,serif" font-size="14.00">X</text>
</g>
<!-- sklearn.preprocessing.MinMaxScaler#1&#45;&gt;sklearn.preprocessing.MinMaxScaler#1 X -->
<g id="edge15" class="edge">
<title>sklearn.preprocessing.MinMaxScaler#1&#45;&gt;sklearn.preprocessing.MinMaxScaler#1 X</title>
<path fill="none" stroke="black" d="M269,-879.83C269,-868.83 269,-854.86 269,-843.91"/>
</g>
<!-- sklearn.preprocessing.MinMaxScaler#1 X&#45;&gt;mlprimitives.custom.timeseries_preprocessing.rolling_window_sequences#1 -->
<g id="edge16" class="edge">
<title>sklearn.preprocessing.MinMaxScaler#1 X&#45;&gt;mlprimitives.custom.timeseries_preprocessing.rolling_window_sequences#1</title>
<path fill="none" stroke="black" d="M269,-808.2C269,-808.2 269,-783.86 269,-783.86"/>
<polygon fill="black" stroke="black" points="272.5,-783.86 269,-773.86 265.5,-783.86 272.5,-783.86"/>
</g>
<!-- sklearn.impute.SimpleImputer#1 -->
<g id="node17" class="node">
<title>sklearn.impute.SimpleImputer#1</title>
<polygon fill="none" stroke="black" points="350.5,-1060 225.5,-1060 225.5,-1024 350.5,-1024 350.5,-1060"/>
<text text-anchor="middle" x="288" y="-1038.3" font-family="Times,serif" font-size="14.00">SimpleImputer</text>
</g>
<!-- sklearn.impute.SimpleImputer#1 X -->
<g id="node18" class="node">
<title>sklearn.impute.SimpleImputer#1 X</title>
<polygon fill="none" stroke="black" stroke-width="0" points="314,-988 260,-988 260,-952 314,-952 314,-988"/>
<text text-anchor="middle" x="287" y="-966.3" font-family="Times,serif" font-size="14.00">X</text>
</g>
<!-- sklearn.impute.SimpleImputer#1&#45;&gt;sklearn.impute.SimpleImputer#1 X -->
<g id="edge17" class="edge">
<title>sklearn.impute.SimpleImputer#1&#45;&gt;sklearn.impute.SimpleImputer#1 X</title>
<path fill="none" stroke="black" d="M287,-1023.83C287,-1012.83 287,-998.86 287,-987.91"/>
</g>
<!-- sklearn.impute.SimpleImputer#1 X&#45;&gt;sklearn.preprocessing.MinMaxScaler#1 -->
<g id="edge18" class="edge">
<title>sklearn.impute.SimpleImputer#1 X&#45;&gt;sklearn.preprocessing.MinMaxScaler#1</title>
<path fill="none" stroke="black" d="M287,-952.2C287,-952.2 287,-927.86 287,-927.86"/>
<polygon fill="black" stroke="black" points="290.5,-927.86 287,-917.86 283.5,-927.86 290.5,-927.86"/>
</g>
<!-- mlprimitives.custom.timeseries_preprocessing.time_segments_aggregate#1 -->
<g id="node19" class="node">
<title>mlprimitives.custom.timeseries_preprocessing.time_segments_aggregate#1</title>
<polygon fill="none" stroke="black" points="391,-1204 185,-1204 185,-1168 391,-1168 391,-1204"/>
<text text-anchor="middle" x="288" y="-1182.3" font-family="Times,serif" font-size="14.00">time_segments_aggregate</text>
</g>
<!-- mlprimitives.custom.timeseries_preprocessing.time_segments_aggregate#1 X -->
<g id="node20" class="node">
<title>mlprimitives.custom.timeseries_preprocessing.time_segments_aggregate#1 X</title>
<polygon fill="none" stroke="black" stroke-width="0" points="315,-1132 261,-1132 261,-1096 315,-1096 315,-1132"/>
<text text-anchor="middle" x="288" y="-1110.3" font-family="Times,serif" font-size="14.00">X</text>
</g>
<!-- mlprimitives.custom.timeseries_preprocessing.time_segments_aggregate#1&#45;&gt;mlprimitives.custom.timeseries_preprocessing.time_segments_aggregate#1 X -->
<g id="edge19" class="edge">
<title>mlprimitives.custom.timeseries_preprocessing.time_segments_aggregate#1&#45;&gt;mlprimitives.custom.timeseries_preprocessing.time_segments_aggregate#1 X</title>
<path fill="none" stroke="black" d="M288,-1167.83C288,-1156.83 288,-1142.86 288,-1131.91"/>
</g>
<!-- mlprimitives.custom.timeseries_preprocessing.time_segments_aggregate#1 index -->
<g id="node21" class="node">
<title>mlprimitives.custom.timeseries_preprocessing.time_segments_aggregate#1 index</title>
<polygon fill="none" stroke="black" stroke-width="0" points="242,-1132 186,-1132 186,-1096 242,-1096 242,-1132"/>
<text text-anchor="middle" x="214" y="-1110.3" font-family="Times,serif" font-size="14.00">index</text>
</g>
<!-- mlprimitives.custom.timeseries_preprocessing.time_segments_aggregate#1&#45;&gt;mlprimitives.custom.timeseries_preprocessing.time_segments_aggregate#1 index -->
<g id="edge21" class="edge">
<title>mlprimitives.custom.timeseries_preprocessing.time_segments_aggregate#1&#45;&gt;mlprimitives.custom.timeseries_preprocessing.time_segments_aggregate#1 index</title>
<path fill="none" stroke="black" d="M214,-1167.83C214,-1156.83 214,-1142.86 214,-1131.91"/>
</g>
<!-- mlprimitives.custom.timeseries_preprocessing.time_segments_aggregate#1 X&#45;&gt;sklearn.impute.SimpleImputer#1 -->
<g id="edge20" class="edge">
<title>mlprimitives.custom.timeseries_preprocessing.time_segments_aggregate#1 X&#45;&gt;sklearn.impute.SimpleImputer#1</title>
<path fill="none" stroke="black" d="M288,-1096.2C288,-1096.2 288,-1071.86 288,-1071.86"/>
<polygon fill="black" stroke="black" points="291.5,-1071.86 288,-1061.86 284.5,-1071.86 291.5,-1071.86"/>
</g>
<!-- mlprimitives.custom.timeseries_preprocessing.time_segments_aggregate#1 index&#45;&gt;mlprimitives.custom.timeseries_preprocessing.rolling_window_sequences#1 -->
<g id="edge22" class="edge">
<title>mlprimitives.custom.timeseries_preprocessing.time_segments_aggregate#1 index&#45;&gt;mlprimitives.custom.timeseries_preprocessing.rolling_window_sequences#1</title>
<path fill="none" stroke="black" d="M205.75,-1096.15C205.75,-1096.15 205.75,-783.9 205.75,-783.9"/>
<polygon fill="black" stroke="black" points="209.25,-783.9 205.75,-773.9 202.25,-783.9 209.25,-783.9"/>
</g>
<!-- drop_input -->
<g id="node22" class="node">
<title>drop_input</title>
<polygon fill="none" stroke="black" stroke-width="0" points="213,-1276 159,-1276 159,-1240 213,-1240 213,-1276"/>
<text text-anchor="middle" x="186" y="-1254.3" font-family="Times,serif" font-size="14.00">drop</text>
</g>
<!-- drop_input&#45;&gt;mlprimitives.custom.timeseries_preprocessing.rolling_window_sequences#1 -->
<g id="edge23" class="edge">
<title>drop_input&#45;&gt;mlprimitives.custom.timeseries_preprocessing.rolling_window_sequences#1</title>
<path fill="none" stroke="black" d="M172,-1240.06C172,-1240.06 172,-783.76 172,-783.76"/>
<polygon fill="black" stroke="black" points="175.5,-783.76 172,-773.76 168.5,-783.76 175.5,-783.76"/>
</g>
<!-- X_input -->
<g id="node23" class="node">
<title>X_input</title>
<polygon fill="none" stroke="black" stroke-width="0" points="285,-1276 231,-1276 231,-1240 285,-1240 285,-1276"/>
<text text-anchor="middle" x="258" y="-1254.3" font-family="Times,serif" font-size="14.00">X</text>
</g>
<!-- drop_input&#45;&gt;X_input -->
<g id="edge27" class="edge">
<title>drop_input&#45;&gt;X_input</title>
<path fill="none" stroke="black" stroke-width="0" d="M212.81,-1258C218.89,-1258 225.34,-1258 231.41,-1258"/>
</g>
<!-- X_input&#45;&gt;mlprimitives.custom.timeseries_preprocessing.time_segments_aggregate#1 -->
<g id="edge24" class="edge">
<title>X_input&#45;&gt;mlprimitives.custom.timeseries_preprocessing.time_segments_aggregate#1</title>
<path fill="none" stroke="black" d="M258,-1240.2C258,-1240.2 258,-1215.86 258,-1215.86"/>
<polygon fill="black" stroke="black" points="261.5,-1215.86 258,-1205.86 254.5,-1215.86 261.5,-1215.86"/>
</g>
<!-- Input -->
<g id="node24" class="node">
<title>Input</title>
<g id="a_node24"><a xlink:title="Input variables">
<polygon fill="none" stroke="black" stroke-width="0" points="250,-1348 194,-1348 194,-1312 250,-1312 250,-1348"/>
<text text-anchor="middle" x="222" y="-1326.3" font-family="Times,serif" font-size="14.00">Input</text>
</a>
</g>
</g>
<!-- Input&#45;&gt;drop_input -->
<g id="edge25" class="edge">
<title>Input&#45;&gt;drop_input</title>
<path fill="none" stroke="black" stroke-width="0" d="M203.5,-1312.2C203.5,-1301.13 203.5,-1286.93 203.5,-1275.84"/>
</g>
<!-- Input&#45;&gt;X_input -->
<g id="edge26" class="edge">
<title>Input&#45;&gt;X_input</title>
<path fill="none" stroke="black" stroke-width="0" d="M240.5,-1312.2C240.5,-1301.13 240.5,-1286.93 240.5,-1275.84"/>
</g>
</g>
</svg>
